# AST/ASF file generated using VICON BodyLanguage
# -----------------------------------------------
:version 1.10
:name VICON
:units
  mass 1.0
  length 0.45
  angle deg
:documentation
   .ast/.asf automatically generated from VICON data using
   VICON BodyBuilder and BodyLanguage model FoxedUp or BRILLIANT.MOD
:root
   order TX TY TZ RX RY RZ
   axis XYZ
   position 0 0 0  
   orientation 0 0 0 
:bonedata
  begin
     id 1 
     name lhipjoint
     direction 0.535335 -0.74333 0.401095 
     length 2.04549 
     axis 0 0 0  XYZ
  end
  begin
     id 2 
     name lfemur
     direction 0.34202 -0.939693 0  
     length 6.95643  
     axis 0 0 20  XYZ
    dof rx ry rz
    limits (-160.0 20.0)
           (-70.0 70.0)
           (-60.0 70.0)
  end
  begin
     id 3 
     name ltibia
     direction 0.34192 -0.939729 0   
     length 5.55969   
     axis 0 0 20   XYZ
    dof rx
    limits (-10.0 170.0)
  end
  begin
     id 4 
     name lfoot
     direction 0.216943 -0.596046 0.773088   
     length 2.27918   
     axis -90 7.62852e-016 20   XYZ
    dof rx rz
    limits (-45.0 90.0)
           (-70.0 20.0)
  end
  begin
     id 5 
     name ltoes
     direction 1.53519e-011 -4.21748e-011 1   
     length 1.05562   
     axis -90 7.62852e-016 20   XYZ
    dof rx
    limits (-90.0 20.0)
  end
  begin
     id 6 
     name rhipjoint
     direction -0.576368 -0.719173 0.38806   
     length 2.1142  
     axis 0 0 0  XYZ 
  end
  begin
     id 7 
     name rfemur
     direction -0.34202 -0.939693 0   
     length 7.07928   
     axis 0 0 -20   XYZ
    dof rx ry rz
    limits (-160.0 20.0)
           (-70.0 70.0)
           (-70.0 60.0)
  end
  begin
     id 8 
     name rtibia
     direction -0.34202 -0.939693 0   
     length 5.79974   
     axis 0 0 -20   XYZ
    dof rx
    limits (-10.0 170.0)
 end
 begin
     id 9 
     name rfoot
     direction -0.189288 -0.520065 0.832888   
     length 2.42173  
     axis -90 -7.62852e-016 -20   XYZ
    dof rx rz
    limits (-45.0 90.0)
           (-20.0 70.0)
  end
  begin
     id 10 
     name rtoes
     direction -1.53574e-011 -4.21658e-011 1   
     length 1.14469   
     axis -90 -7.62852e-016 -20   XYZ
    dof rx
    limits (-90.0 20.0)
  end
  begin
     id 11 
     name lowerback
     direction -0.00135702 0.993803 0.111144   
     length 1.91308   
     axis 0 0 0   XYZ
    dof rx ry rz
    limits (-20.0 45.0)
           (-30.0 30.0)
           (-30.0 30.0)
  end
  begin
     id 12 
     name upperback
     direction -0.0056745 0.999813 0.0184631   
     length 1.9212   
     axis 0 0 0   XYZ
    dof rx ry rz
    limits (-20.0 45.0)
           (-30.0 30.0)
           (-30.0 30.0)
  end
  begin
     id 13 
     name thorax
     direction -0.00733434 0.999426 -0.0330788   
     length 1.94196   
     axis 0 0 0   XYZ
    dof rx ry rz
    limits (-20.0 45.0)
           (-30.0 30.0)
           (-30.0 30.0)
  end
  begin
     id 14 
     name lowerneck
     direction 0.0563074 0.996944 -0.0541571   
     length 2.34257   
     axis 0 0 0   XYZ
    dof rx ry rz
    limits (-20.0 45.0)
           (-30.0 30.0)
           (-30.0 30.0)
  end
  begin
     id 15 
     name upperneck
     direction -0.0544519 0.976166 -0.210085   
     length 2.32506   
     axis 0 0 0   XYZ
    dof rx ry rz
    limits (-20.0 45.0)
           (-30.0 30.0)
           (-30.0 30.0)
  end
  begin
     id 16
     name head
     direction -0.0226035 0.997615 -0.0652205  
     length 2.3648  
     axis 0 0 0   XYZ
    dof rx ry rz
    limits (-20.0 45.0)
           (-30.0 30.0)
           (-30.0 30.0)
  end
  begin
     id 17 
     name lclavicle
     direction 0.92109 0.381297 -0.0787716  
     length 4.0487  
     axis 0 0 0   XYZ
    dof ry rz
    limits (-20.0 10.0)
           (0.0 20.0)
  end
  begin
     id 18 
     name lhumerus
     direction 1 -4.48986e-011 3.56724e-027   
     length 4.94991   
     axis 180 -30 -90   XYZ
    dof rx ry rz
    limits (-60.0 90.0)
           (-90.0 90.0)
           (-90.0 90.0)
  end
  begin
     id 19
     name lradius
     direction 1 -4.48981e-011 8.62147e-027   
     length 2.7606   
     axis 180 -30 -90   XYZ
    dof rx
    limits (-10.0 170.0)
  end
  begin
     id 20
     name lwrist
     direction 1 -4.48989e-011 1.59799e-026   
     length 1.3803   
     axis -1.17785e-014 90 90   XYZ
    dof ry
    limits (-180.0 0.0)
 end
  begin
     id 21 
     name lhand
     direction 1 -4.48896e-011 3.19599e-026   
     length 0.843936   
     axis -2.03931e-014 90 90   XYZ
    dof rx rz
    limits (-90.0 90.0)
           (-45.0 45.0)
  end
  begin
     id 22 
     name lfingers
     direction 1 -4.48887e-011 6.39197e-026   
     length 0.680403   
     axis -4.07862e-014 90 90   XYZ
    dof rx
    limits (0.0 90.0)
  end
  begin
     id 23
     name lthumb
     direction 0.707107 -6.348e-011 0.707107   
     length 0.976926   
     axis -90 45 2.85299e-015   XYZ
    dof rx rz
    limits (-45.0 45.0)
           (-45.0 45.0)
  end
  begin
     id 24 
     name rclavicle
     direction -0.951104 0.307692 -0.026953   
     length 4.21801  
     axis 0 0 0   XYZ 
    dof ry rz
    limits (-10.0 20.0)
           (-20.0 0.0)
  end
  begin
     id 25 
     name rhumerus
     direction -1 -4.4896e-011 -1.8171e-018  
     length 4.32982   
     axis 180 30 90   XYZ
    dof rx ry rz
    limits (-90.0 60.0)
           (-90.0 90.0)
           (-90.0 90.0)
  end
  begin
     id 26 
     name rradius
     direction -1 -4.48959e-011 8.25165e-027   
     length 3.20057   
     axis 180 30 90   XYZ
    dof rx
    limits (-10.0 170.0)
  end
  begin
     id 27 
     name rwrist
     direction -1 -4.48997e-011 1.59799e-026   
     length 1.60029   
     axis -1.17785e-014 -90 -90   XYZ
    dof ry
    limits (-180.0 0.0)
  end
  begin
     id 28
     name rhand
     direction -1 -4.49023e-011 3.19599e-026   
     length 0.960433   
     axis -2.03931e-014 -90 -90   XYZ
    dof rx rz
    limits (-90.0 90.0)
           (-45.0 45.0)
  end
  begin
     id 29
     name rfingers
     direction -1 -4.48802e-011 6.39197e-026   
     length 0.774326   
     axis -4.07862e-014 -90 -90   XYZ
    dof rx
    limits (0.0 90.0)
  end
  begin
     id 30
     name rthumb
     direction -0.707107 -6.34876e-011 0.707107   
     length 1.11178   
     axis -90 -45 -2.85299e-015   XYZ
    dof rx rz
    limits (-45.0 45.0)
           (-45.0 45.0)
  end
:hierarchy
  begin
    root lhipjoint rhipjoint lowerback
    lhipjoint lfemur
    lfemur ltibia
    ltibia lfoot
    lfoot ltoes
    rhipjoint rfemur
    rfemur rtibia
    rtibia rfoot
    rfoot rtoes
    lowerback upperback
    upperback thorax
    thorax lowerneck lclavicle rclavicle
    lowerneck upperneck
    upperneck head
    lclavicle lhumerus
    lhumerus lradius
    lradius lwrist
    lwrist lhand lthumb
    lhand lfingers
    rclavicle rhumerus
    rhumerus rradius
    rradius rwrist
    rwrist rhand rthumb
    rhand rfingers
end

#!OML:ASF C:\KaitlinTest1\Natural Motions\Nikki\Session 2\Nikki.ASF
:FULLY-SPECIFIED
:DEGREES
326
root -12.8592 16.2754 5.25061 -294.743 92.1266 -303.74
lowerback -8.65107 -1.55938 0.23921
upperback -6.8639 -1.82064 -1.50498
thorax -2.32728 -0.83547 -1.81033
lowerneck -11.2539 -13.1866 -8.10991
upperneck 4.59059 42.3158 5.60921
head 168.776 54.5782 -37.0186
rclavicle -4.27387e-015 -1.11319e-014
rhumerus -46.9238 17.2535 -103.025
rradius 83.7472
rwrist -1.21186
rhand -40.843 13.056
rfingers 7.12502
rthumb -13.7803 -16.4676
lclavicle -4.27387e-015 -1.11319e-014
lhumerus -30.7495 -15.4769 85.9099
lradius 67.7025
lwrist 2.22329
lhand -38.8293 1.31987
lfingers 7.12502
lthumb -11.839 30.9652
rfemur -17.2947 -14.411 20.9008
rtibia 37.1043
rfoot -23.1445 8.84805
rtoes 4.29375e-014
lfemur -19.8489 4.53317 -15.9212
ltibia 33.8192
lfoot -9.99177 -1.7716
ltoes 8.11041e-014
327
root -12.9077 16.1166 5.2552 -298.656 92.1423 -308.072
lowerback -8.66802 -1.58299 0.0185248
upperback -6.64207 -1.84817 -1.41738
thorax -2.0754 -0.842968 -1.60063
lowerneck -12.0752 -13.4338 -7.93286
upperneck 4.09152 41.3856 5.25773
head 168.012 55.313 -37.458
rclavicle -1.07344e-014 -1.59028e-015
rhumerus -45.8968 16.7354 -102.48
rradius 82.5391
rwrist -0.391749
rhand -41.239 13.5619
rfingers 7.12502
rthumb -14.162 -15.9354
lclavicle -1.07344e-014 -1.59028e-015
lhumerus -29.852 -15.0352 86.1913
lradius 66.1506
lwrist 2.68034
lhand -39.4495 1.75806
lfingers 7.12502
lthumb -12.4371 31.368
rfemur -19.3895 -14.5075 21.0622
rtibia 40.1068
rfoot -24.5517 8.34684
rtoes -2.3059e-014
lfemur -21.7985 4.12848 -15.8937
ltibia 36.5116
lfoot -12.0377 -1.44902
ltoes -2.38542e-014
328
root -12.9528 15.965 5.26046 -302.273 92.0758 -311.979
lowerback -8.67963 -1.57365 -0.275691
upperback -6.45802 -1.82461 -1.38789
thorax -1.86472 -0.82355 -1.40614
lowerneck -12.6655 -13.6782 -7.7324
upperneck 3.74847 40.6489 5.02123
head 167.28 55.9 -37.8982
rclavicle 1.69961e-014 -3.18055e-015
rhumerus -45.0794 16.0045 -102.057
rradius 81.1514
rwrist 0.345627
rhand -41.5857 13.9766
rfingers 7.12502
rthumb -14.496 -15.497
lclavicle 1.69961e-014 -3.18055e-015
lhumerus -29.2781 -14.5615 86.5092
lradius 64.5052
lwrist 3.38278
lhand -40.1136 1.45017
lfingers 7.12502
lthumb -13.0773 31.0202
rfemur -21.3388 -14.5141 21.1313
rtibia 43.1144
rfoot -25.9437 7.76717
rtoes 3.97569e-015
lfemur -23.6027 3.91035 -15.9379
ltibia 39.1481
lfoot -13.9736 -1.23623
ltoes -1.59028e-015
329
root -13.0026 15.8327 5.25638 -314.671 92.0778 -324.554
lowerback -8.49308 -1.71357 -0.764231
upperback -6.40428 -1.98585 -1.31408
thorax -1.89437 -0.888273 -1.06281
lowerneck -12.9792 -13.6988 -7.79335
upperneck 3.64009 40.6936 4.9655
head 167.455 55.6743 -37.8173
rclavicle -4.47266e-015 -5.56597e-015
rhumerus -44.8184 15.3262 -101.793
rradius 79.7126
rwrist 0.58542
rhand -41.821 14.5454
rfingers 7.12502
rthumb -14.7227 -14.9118
lclavicle -4.47266e-015 -5.56597e-015
lhumerus -29.2604 -13.7017 87.03
lradius 62.9577
lwrist 3.77783
lhand -40.7498 1.7434
lfingers 7.12502
lthumb -13.6905 31.2731
rfemur -23.1085 -14.8751 20.9671
rtibia 45.889
rfoot -27.4405 7.32184
rtoes 4.92986e-014
lfemur -25.4066 3.35759 -16.1923
ltibia 41.741
lfoot -14.8613 -1.05259
ltoes -1.74931e-014
330
root -13.0417 15.7202 5.25483 -314.823 91.8551 -324.781
lowerback -9.46035 -1.58671 -1.01358
upperback -5.44829 -1.80473 -1.33712
thorax -0.359712 -0.809213 -0.972206
lowerneck -14.3683 -14.0552 -7.38781
upperneck 3.02162 39.7697 4.65272
head 166.636 56.2965 -38.4222
rclavicle 5.41688e-015 1.11319e-014
rhumerus -43.3045 14.6517 -101.417
rradius 78.3129
rwrist 0.185357
rhand -41.8707 14.3761
rfingers 7.12502
rthumb -14.7706 -15.0776
lclavicle 5.41688e-015 1.11319e-014
lhumerus -27.8635 -12.6122 86.8756
lradius 61.1069
lwrist 2.09893
lhand -39.7116 3.19255
lfingers 7.12502
lthumb -12.6897 32.787
rfemur -24.6965 -14.7593 20.9218
rtibia 48.5001
rfoot -28.3883 6.85929
rtoes -5.48646e-014
lfemur -26.9056 3.27546 -16.3665
ltibia 44.2009
lfoot -15.863 -0.640813
ltoes 7.31528e-014
331
root -13.0905 15.6131 5.25033 -304.05 91.5641 -314.125
lowerback -9.2296 -1.40555 -1.01229
upperback -5.40941 -1.57611 -1.2623
thorax -0.440991 -0.696569 -0.870315
lowerneck -14.7715 -14.1936 -7.30341
upperneck 2.85814 39.5131 4.5406
head 166.28 56.4113 -38.66
rclavicle 2.68359e-015 6.36111e-015
rhumerus -43.2361 13.8871 -101.32
rradius 76.7987
rwrist 0.222652
rhand -41.9885 14.3177
rfingers 7.12502
rthumb -14.8841 -15.1276
lclavicle 2.68359e-015 6.36111e-015
lhumerus -28.2132 -11.3204 87.4404
lradius 59.5314
lwrist 1.96728
lhand -39.8688 3.77879
lfingers 7.12502
lthumb -12.8413 33.3638
rfemur -26.3128 -14.1499 21.0197
rtibia 50.9258
rfoot -29.1664 6.40519
rtoes 7.87187e-014
lfemur -28.2294 3.20052 -16.3813
ltibia 46.3538
lfoot -16.6043 0.135963
ltoes -9.54166e-015
332
root -13.139 15.5192 5.24804 -288.016 91.2224 -298.267
lowerback -9.06841 -1.23366 -1.04008
upperback -5.35225 -1.35399 -1.28901
thorax -0.46808 -0.587609 -0.86035
lowerneck -15.358 -14.2968 -7.10441
upperneck 2.73917 39.6599 4.54039
head 166.289 56.0756 -38.763
rclavicle -5.2181e-015 -1.43125e-014
rhumerus -43.2067 12.929 -101.413
rradius 75.2642
rwrist 0.412205
rhand -42.0679 13.8675
rfingers 7.12502
rthumb -14.9606 -15.5721
lclavicle -5.2181e-015 -1.43125e-014
lhumerus -28.6102 -9.24929 87.7494
lradius 57.8786
lwrist 1.48951
lhand -39.9066 3.5209
lfingers 7.12502
lthumb -12.8778 33.1036
rfemur -27.8434 -13.2334 20.944
rtibia 53.0579
rfoot -29.7442 6.01117
rtoes 1.38354e-013
lfemur -29.4461 3.22795 -16.5366
ltibia 48.1087
lfoot -17.1482 0.892169
ltoes 7.79236e-014
